<svg xmlns="http://www.w3.org/2000/svg" xmlns:xlink="http://www.w3.org/1999/xlink" xmlns:lucid="lucid" width="3324" height="1164"><g transform="translate(62 902)" lucid:page-tab-id="0_0"><path d="M-500-1000h4000V500H-500z" fill="#fff"/><path d="M120-520c0 44.18-35.82 80-80 80s-80-35.82-80-80 35.82-80 80-80 80 35.82 80 80z" stroke="#000" stroke-width="4" fill="#fff"/><path d="M124-520h51.76" stroke="#000" stroke-width="4" fill="none"/><path d="M124.05-518.02h-2.1l.05-1.95v-.75l-.05-1.25h2.1z" stroke="#000" stroke-width=".05"/><path d="M192.03-520l-14.27 4.63v-9.26z" stroke="#000" stroke-width="4"/><path d="M200-794a6 6 0 0 1 6-6h28a6 6 0 0 1 6 6v548a6 6 0 0 1-6 6h-28a6 6 0 0 1-6-6z" stroke="#000" stroke-width="3"/><use xlink:href="#a" transform="matrix(1,0,0,1,205,-795) translate(7.5925925925925934 275.59027777777777)"/><path d="M240.6-800h75.93" stroke="#000" stroke-width="4" fill="none"/><path d="M241.18-796.4h-.07l-.4-1-.63-1-.76-.9-.9-.77-1-.62-.17-.06v-.68h3.95z" stroke="#000" stroke-width=".05"/><path d="M332.8-800l-14.27 4.63v-9.26z" stroke="#000" stroke-width="4"/><path d="M240.6-240h75.93" stroke="#000" stroke-width="4" fill="none"/><path d="M241.18-238.56h-3.95v-.68l.18-.07 1-.63.9-.76.77-.9.62-1 .4-1h.08z" stroke="#000" stroke-width=".05"/><path d="M332.8-240l-14.27 4.63v-9.26z" stroke="#000" stroke-width="4"/><path d="M361.12-874.2a7.8 7.8 0 0 1 7.55-5.8H634a4.6 4.6 0 0 1 4.45 5.8l-39.57 148.4a7.8 7.8 0 0 1-7.55 5.8H326a4.6 4.6 0 0 1-4.45-5.8z" stroke="#000" stroke-width="4" fill="#fff"/><use xlink:href="#b" transform="matrix(1,0,0,1,332,-868) translate(42.15932098765433 75.88888888888889)"/><use xlink:href="#c" transform="matrix(1,0,0,1,332,-868) translate(147.505 75.88888888888889)"/><path d="M622.74-800h75" stroke="#000" stroke-width="4" fill="none"/><path d="M622.8-798.02h-2.6l1.06-3.96h1.53z" stroke="#000" stroke-width=".05"/><path d="M714-800l-14.26 4.63v-9.26z" stroke="#000" stroke-width="4"/><path d="M795.76-875.76a6 6 0 0 1 8.48 0l71.52 71.52a6 6 0 0 1 0 8.48l-71.52 71.52a6 6 0 0 1-8.48 0l-71.52-71.52a6 6 0 0 1 0-8.48z" stroke="#000" stroke-width="4" fill="#fff"/><path d="M481.98-616.08l.05.7.15.62.24.6.33.52.4.48.5.4.53.34.58.24.6.15.72.05h53.97v3.96h-54.13l-1.17-.1-1.22-.3-1.15-.47-1.07-.64-.94-.82-.82-.95-.65-1.08-.5-1.15-.28-1.22-.1-1.17v-79.34h3.96zm320 .16l-.1 1.17-.3 1.22-.47 1.15-.64 1.07-.82.94-.95.82-1.08.65-1.15.5-1.22.28-1.17.1h-51.66V-612h51.5l.7-.05.62-.15.6-.24.52-.33.48-.4.4-.5.34-.52.24-.6.15-.6.05-.7v-102.4H802z" stroke="#000" stroke-width=".05"/><path d="M798.75-720.58l1.25.1 1.25-.1.73-.17v2.32H798v-2.32z"/><path stroke="#000" stroke-width=".05"/><path d="M484.63-697.26h-9.26l4.63-14.27z"/><path d="M487.35-695.3h-14.7L480-717.9zm-9.27-3.94h3.84l-1.92-5.9z" stroke="#000" stroke-width=".05"/><use xlink:href="#d" transform="matrix(1,0,0,1,540.0543567574127,-626) translate(0 21.333333333333332)"/><use xlink:href="#e" transform="matrix(1,0,0,1,540.0543567574127,-626) translate(57.629629629629626 21.333333333333332)"/><path d="M881.52-800h53.74" stroke="#000" stroke-width="4" fill="none"/><path d="M881.57-798.02h-2.32l.17-.73.1-1.25-.1-1.25-.17-.73h2.32z" stroke="#000" stroke-width=".05"/><path d="M951.53-800l-14.27 4.63v-9.26z" stroke="#000" stroke-width="4"/><path d="M960-874a6 6 0 0 1 6-6h308a6 6 0 0 1 6 6v148a6 6 0 0 1-6 6H966a6 6 0 0 1-6-6z" stroke="#000" stroke-width="4" fill="#fff"/><use xlink:href="#f" transform="matrix(1,0,0,1,972,-868) translate(67.71604938271606 75.88888888888889)"/><use xlink:href="#c" transform="matrix(1,0,0,1,972,-868) translate(122.93827160493828 75.88888888888889)"/><path d="M1284-800h51.26" stroke="#000" stroke-width="4" fill="none"/><path d="M1284.05-798.02H1282V-802h2.05z" stroke="#000" stroke-width=".05"/><path d="M1351.53-800l-14.27 4.63v-9.26z" stroke="#000" stroke-width="4"/><path d="M1520-800c0 44.18-35.82 80-80 80s-80-35.82-80-80 35.82-80 80-80 80 35.82 80 80z" stroke="#000" stroke-width="4" fill="#fff"/><use xlink:href="#a" transform="matrix(1,0,0,1,1365,-875) translate(67.5925925925926 78.71527777777777)"/><path d="M1490-800c0 27.6-22.4 50-50 50s-50-22.4-50-50 22.4-50 50-50 50 22.4 50 50z" stroke="#000" stroke-width="4"/><path d="M361.12-314.2a7.8 7.8 0 0 1 7.55-5.8H634a4.6 4.6 0 0 1 4.45 5.8l-39.57 148.4a7.8 7.8 0 0 1-7.55 5.8H326a4.6 4.6 0 0 1-4.45-5.8z" stroke="#000" stroke-width="4" fill="#fff"/><use xlink:href="#g" transform="matrix(1,0,0,1,332,-308) translate(109.52351851851854 75.88888888888889)"/><path d="M623.5-240h74.24M623.55-240h-2.05" stroke="#000" stroke-width="4" fill="none"/><path d="M714-240l-14.26 4.63v-9.26z" stroke="#000" stroke-width="4"/><path d="M795.76-315.76a6 6 0 0 1 8.48 0l71.52 71.52a6 6 0 0 1 0 8.48l-71.52 71.52a6 6 0 0 1-8.48 0l-71.52-71.52a6 6 0 0 1 0-8.48z" stroke="#000" stroke-width="4" fill="#fff"/><path d="M481.98-56.08l.05.7.15.62.24.6.33.52.4.48.5.4.53.34.58.24.6.15.72.05h64.8v3.95h-64.96l-1.17-.1-1.22-.28-1.15-.5-1.07-.64-.94-.82-.82-.95-.65-1.08-.5-1.15-.28-1.22-.1-1.17v-79.84h3.96zm320 .16l-.1 1.17-.3 1.22-.47 1.15-.64 1.07-.82.94-.95.82-1.08.65-1.15.5-1.22.28-1.17.1H731.1v-3.95h62.82l.7-.06.62-.15.6-.24.52-.33.48-.4.4-.5.34-.52.24-.6.15-.6.05-.7v-102.4H802z" stroke="#000" stroke-width=".05"/><path d="M798.75-160.58l1.25.1 1.25-.1.73-.17v2.32H798v-2.32z"/><path stroke="#000" stroke-width=".05"/><path d="M484.63-137.76h-9.26l4.63-14.27z"/><path d="M487.35-135.8h-14.7L480-158.4zm-9.27-3.94h3.84l-1.92-5.9z" stroke="#000" stroke-width=".05"/><use xlink:href="#h" transform="matrix(1,0,0,1,550.8784273063613,-66) translate(0 21.333333333333332)"/><use xlink:href="#i" transform="matrix(1,0,0,1,550.8784273063613,-66) translate(79.7037037037037 21.333333333333332)"/><path d="M881.52-240h53.74" stroke="#000" stroke-width="4" fill="none"/><path d="M881.57-238.03h-2.32l.17-.72.1-1.25-.1-1.25-.17-.72h2.32z" stroke="#000" stroke-width=".05"/><path d="M951.53-240l-14.27 4.63v-9.26z" stroke="#000" stroke-width="4"/><path d="M960-314a6 6 0 0 1 6-6h308a6 6 0 0 1 6 6v148a6 6 0 0 1-6 6H966a6 6 0 0 1-6-6z" stroke="#000" stroke-width="4" fill="#fff"/><use xlink:href="#j" transform="matrix(1,0,0,1,972,-308) translate(63.39506172839508 54.638888888888886)"/><use xlink:href="#k" transform="matrix(1,0,0,1,972,-308) translate(198.037037037037 54.638888888888886)"/><use xlink:href="#l" transform="matrix(1,0,0,1,972,-308) translate(87.5493827160494 91.97222222222221)"/><path d="M1282-240h253.76M1282.05-240H1280" stroke="#000" stroke-width="4" fill="none"/><path d="M1552.03-240l-14.27 4.63v-9.26z" stroke="#000" stroke-width="4"/><path d="M1560-634a6 6 0 0 1 6-6h28a6 6 0 0 1 6 6v788a6 6 0 0 1-6 6h-28a6 6 0 0 1-6-6z" stroke="#000" stroke-width="3"/><use xlink:href="#a" transform="matrix(1,0,0,1,1565,-635) translate(7.5925925925925934 400.43402777777777)"/><path d="M1601.22-639.38h75.14" stroke="#000" stroke-width="4" fill="none"/><path stroke="#000" stroke-width=".05"/><path d="M1692.63-639.38l-14.27 4.63v-9.27z" stroke="#000" stroke-width="4"/><path d="M1600.6 160h54.66" stroke="#000" stroke-width="4" fill="none"/><path d="M1601.2 161.43h-3.96v-.68l.17-.06 1-.63.9-.76.77-.9.62-1 .4-1.02h.1z" stroke="#000" stroke-width=".05"/><path d="M1671.53 160l-14.27 4.63v-9.26z" stroke="#000" stroke-width="4"/><path d="M1603.5-240h73.03" stroke="#000" stroke-width="4" fill="none"/><path d="M1603.55-238.03h-2.05v-3.94h2.05z" stroke="#000" stroke-width=".05"/><path d="M1692.8-240l-14.27 4.63v-9.26z" stroke="#000" stroke-width="4"/><path d="M1721.12-714.2a7.8 7.8 0 0 1 7.55-5.8H1994a4.6 4.6 0 0 1 4.45 5.8l-39.57 148.4a7.8 7.8 0 0 1-7.55 5.8H1686a4.6 4.6 0 0 1-4.45-5.8z" stroke="#000" stroke-width="4" fill="#fff"/><use xlink:href="#m" transform="matrix(1,0,0,1,1692,-708) translate(25.82598765432102 75.88888888888889)"/><use xlink:href="#c" transform="matrix(1,0,0,1,1692,-708) translate(163.83833333333334 75.88888888888889)"/><path d="M1982.74-640h75" stroke="#000" stroke-width="4" fill="none"/><path d="M1982.8-638.02h-2.6l1.06-3.96h1.53z" stroke="#000" stroke-width=".05"/><path d="M2074-640l-14.26 4.63v-9.26z" stroke="#000" stroke-width="4"/><path d="M2155.76-715.76a6 6 0 0 1 8.48 0l71.52 71.52a6 6 0 0 1 0 8.48l-71.52 71.52a6 6 0 0 1-8.48 0l-71.52-71.52a6 6 0 0 1 0-8.48z" stroke="#000" stroke-width="4" fill="#fff"/><path d="M1841.97-486.08l.06.7.15.62.24.58.33.54.4.48.5.4.52.34.6.24.6.15.7.05h35.28v3.96h-35.43l-1.17-.1-1.22-.3-1.15-.47-1.07-.64-.94-.82-.82-.95-.65-1.08-.5-1.15-.28-1.22-.1-1.17v-49.34h3.95zm320 .16l-.1 1.17-.28 1.22-.5 1.15-.64 1.07-.82.94-.95.82-1.08.65-1.15.5-1.22.28-1.17.1h-32.95v-3.96h32.8l.7-.05.6-.15.6-.24.53-.33.48-.4.4-.5.34-.53.24-.58.15-.6.06-.72v-72.4h3.94z" stroke="#000" stroke-width=".05"/><path d="M2158.75-560.58l1.25.1 1.25-.1.72-.17v2.32h-3.94v-2.32z"/><path stroke="#000" stroke-width=".05"/><path d="M1844.63-537.26h-9.27l4.64-14.27z"/><path d="M1847.35-535.3h-14.7l7.35-22.62zm-9.27-3.94h3.84l-1.92-5.9z" stroke="#000" stroke-width=".05"/><use xlink:href="#n" transform="matrix(1,0,0,1,1881.350653053709,-496) translate(0 21.333333333333332)"/><use xlink:href="#o" transform="matrix(1,0,0,1,1881.350653053709,-496) translate(134.66666666666666 21.333333333333332)"/><use xlink:href="#p" transform="matrix(1,0,0,1,1881.350653053709,-496) translate(164.29629629629628 21.333333333333332)"/><path d="M2241.52-640h56.22" stroke="#000" stroke-width="4" fill="none"/><path d="M2241.57-638.02h-2.32l.17-.73.1-1.25-.1-1.25-.17-.73h2.32z" stroke="#000" stroke-width=".05"/><path d="M2314-640l-14.26 4.63v-9.26z" stroke="#000" stroke-width="4"/><path d="M2395.76-715.76a6 6 0 0 1 8.48 0l71.52 71.52a6 6 0 0 1 0 8.48l-71.52 71.52a6 6 0 0 1-8.48 0l-71.52-71.52a6 6 0 0 1 0-8.48z" stroke="#000" stroke-width="4" fill="#fff"/><path d="M1841.97-406.08l.06.7.15.62.24.58.33.54.4.48.5.4.52.34.6.24.6.15.7.05h109.54v3.96h-109.68l-1.17-.1-1.22-.3-1.15-.47-1.07-.64-.94-.82-.82-.95-.65-1.08-.5-1.15-.28-1.22-.1-1.17v-129.34h3.95zm560 .16l-.1 1.17-.28 1.22-.5 1.15-.64 1.07-.82.94-.95.82-1.08.65-1.15.5-1.22.28-1.17.1h-107.2v-3.96h107.04l.7-.05.62-.15.6-.24.52-.33.48-.4.4-.5.34-.53.24-.58.15-.6.06-.72v-152.4h3.94z" stroke="#000" stroke-width=".05"/><path d="M2398.75-560.58l1.25.1 1.25-.1.72-.17v2.32h-3.94v-2.32z"/><path stroke="#000" stroke-width=".05"/><path d="M1844.63-537.26h-9.27l4.64-14.27z"/><path d="M1847.35-535.3h-14.7l7.35-22.62zm-9.27-3.94h3.84l-1.92-5.9z" stroke="#000" stroke-width=".05"/><use xlink:href="#q" transform="matrix(1,0,0,1,1955.6099123129684,-416) translate(0 21.333333333333332)"/><use xlink:href="#r" transform="matrix(1,0,0,1,1955.6099123129684,-416) translate(98.88888888888887 21.333333333333332)"/><use xlink:href="#s" transform="matrix(1,0,0,1,1955.6099123129684,-416) translate(137.33333333333331 21.333333333333332)"/><use xlink:href="#t" transform="matrix(1,0,0,1,1955.6099123129684,-416) translate(226.1481481481481 21.333333333333332)"/><use xlink:href="#p" transform="matrix(1,0,0,1,1955.6099123129684,-416) translate(255.77777777777771 21.333333333333332)"/><path d="M2481.52-640h54.24" stroke="#000" stroke-width="4" fill="none"/><path d="M2481.57-638.02h-2.32l.17-.73.1-1.25-.1-1.25-.17-.73h2.32z" stroke="#000" stroke-width=".05"/><path d="M2552.03-640l-14.27 4.63v-9.26z" stroke="#000" stroke-width="4"/><path d="M2560-634a6 6 0 0 1 6-6h28a6 6 0 0 1 6 6v788a6 6 0 0 1-6 6h-28a6 6 0 0 1-6-6z" stroke="#000" stroke-width="3"/><use xlink:href="#a" transform="matrix(1,0,0,1,2565,-635) translate(7.5925925925925934 400.43402777777777)"/><path d="M1721.12-314.2a7.8 7.8 0 0 1 7.55-5.8H1994a4.6 4.6 0 0 1 4.45 5.8l-39.57 148.4a7.8 7.8 0 0 1-7.55 5.8H1686a4.6 4.6 0 0 1-4.45-5.8z" stroke="#000" stroke-width="4" fill="#fff"/><use xlink:href="#u" transform="matrix(1,0,0,1,1692,-308) translate(30.146975308642006 75.88888888888889)"/><use xlink:href="#c" transform="matrix(1,0,0,1,1692,-308) translate(159.51734567901235 75.88888888888889)"/><path d="M1982.74-240h75" stroke="#000" stroke-width="4" fill="none"/><path d="M1982.8-238.03h-2.6l1.06-3.94h1.53z" stroke="#000" stroke-width=".05"/><path d="M2074-240l-14.26 4.63v-9.26z" stroke="#000" stroke-width="4"/><path d="M2155.76-315.76a6 6 0 0 1 8.48 0l71.52 71.52a6 6 0 0 1 0 8.48l-71.52 71.52a6 6 0 0 1-8.48 0l-71.52-71.52a6 6 0 0 1 0-8.48z" stroke="#000" stroke-width="4" fill="#fff"/><path d="M1841.97-86.08l.06.7.15.62.24.6.33.52.4.48.5.4.52.34.6.24.6.15.7.06h35.28v3.94h-35.43l-1.17-.1-1.22-.28-1.15-.5-1.07-.64-.94-.82-.82-.95-.65-1.08-.5-1.15-.28-1.22-.1-1.17v-49.34h3.95zm320 .16l-.1 1.17-.28 1.22-.5 1.15-.64 1.07-.82.94-.95.82-1.08.65-1.15.5-1.22.28-1.17.1h-32.95v-3.95h32.8l.7-.06.6-.15.6-.24.53-.33.48-.4.4-.5.34-.52.24-.6.15-.6.06-.7v-72.4h3.94z" stroke="#000" stroke-width=".05"/><path d="M2158.75-160.58l1.25.1 1.25-.1.72-.17v2.32h-3.94v-2.32z"/><path stroke="#000" stroke-width=".05"/><path d="M1844.63-137.26h-9.27l4.64-14.27z"/><path d="M1847.35-135.3h-14.7l7.35-22.62zm-9.27-3.94h3.84l-1.92-5.9z" stroke="#000" stroke-width=".05"/><use xlink:href="#n" transform="matrix(1,0,0,1,1881.350653053709,-96) translate(0 21.333333333333332)"/><use xlink:href="#o" transform="matrix(1,0,0,1,1881.350653053709,-96) translate(134.66666666666666 21.333333333333332)"/><use xlink:href="#p" transform="matrix(1,0,0,1,1881.350653053709,-96) translate(164.29629629629628 21.333333333333332)"/><path d="M2241.52-240h56.22" stroke="#000" stroke-width="4" fill="none"/><path d="M2241.57-238.03h-2.32l.17-.72.1-1.25-.1-1.25-.17-.72h2.32z" stroke="#000" stroke-width=".05"/><path d="M2314-240l-14.26 4.63v-9.26z" stroke="#000" stroke-width="4"/><path d="M2395.76-315.76a6 6 0 0 1 8.48 0l71.52 71.52a6 6 0 0 1 0 8.48l-71.52 71.52a6 6 0 0 1-8.48 0l-71.52-71.52a6 6 0 0 1 0-8.48z" stroke="#000" stroke-width="4" fill="#fff"/><path d="M1841.97-6.08l.06.7.15.62.24.58.33.54.4.48.5.4.52.34.6.24.6.15.7.05h109.54v3.96h-109.68l-1.17-.1-1.22-.3-1.15-.47-1.07-.64-.94-.82-.82-.95-.65-1.08-.5-1.15-.28-1.22-.1-1.17v-129.34h3.95zm560 .16l-.1 1.17-.28 1.22-.5 1.15-.64 1.07-.82.94-.95.82-1.08.65-1.15.5-1.22.28-1.17.1h-107.2v-3.96h107.04l.7-.05.62-.15.6-.24.52-.33.48-.4.4-.5.34-.52.24-.6.15-.6.06-.7v-152.4h3.94z" stroke="#000" stroke-width=".05"/><path d="M2398.75-160.58l1.25.1 1.25-.1.72-.17v2.32h-3.94v-2.32z"/><path stroke="#000" stroke-width=".05"/><path d="M1844.63-137.26h-9.27l4.64-14.27z"/><path d="M1847.35-135.3h-14.7l7.35-22.62zm-9.27-3.94h3.84l-1.92-5.9z" stroke="#000" stroke-width=".05"/><use xlink:href="#q" transform="matrix(1,0,0,1,1955.6099123129684,-16) translate(0 21.333333333333332)"/><use xlink:href="#r" transform="matrix(1,0,0,1,1955.6099123129684,-16) translate(98.88888888888887 21.333333333333332)"/><use xlink:href="#s" transform="matrix(1,0,0,1,1955.6099123129684,-16) translate(137.33333333333331 21.333333333333332)"/><use xlink:href="#t" transform="matrix(1,0,0,1,1955.6099123129684,-16) translate(226.1481481481481 21.333333333333332)"/><use xlink:href="#p" transform="matrix(1,0,0,1,1955.6099123129684,-16) translate(255.77777777777771 21.333333333333332)"/><path d="M2481.52-240h54.24" stroke="#000" stroke-width="4" fill="none"/><path d="M2481.57-238.03h-2.32l.17-.72.1-1.25-.1-1.25-.17-.72h2.32z" stroke="#000" stroke-width=".05"/><path d="M2552.03-240l-14.27 4.63v-9.26z" stroke="#000" stroke-width="4"/><path d="M1680 86a6 6 0 0 1 6-6h308a6 6 0 0 1 6 6v148a6 6 0 0 1-6 6h-308a6 6 0 0 1-6-6z" stroke="#000" stroke-width="4" fill="#fff"/><g><use xlink:href="#v" transform="matrix(1,0,0,1,1692,92) translate(44.469135802469154 75.88888888888889)"/><use xlink:href="#c" transform="matrix(1,0,0,1,1692,92) translate(146.1851851851852 75.88888888888889)"/></g><path d="M2002 160h536.77M2002.05 160H2000" stroke="#000" stroke-width="4" fill="none"/><path d="M2555.03 160l-14.26 4.63v-9.26z" stroke="#000" stroke-width="4"/><path d="M2603.5-240h51.76" stroke="#000" stroke-width="4" fill="none"/><path d="M2603.55-238.03h-2.05v-3.94h2.05z" stroke="#000" stroke-width=".05"/><path d="M2671.53-240l-14.27 4.63v-9.26z" stroke="#000" stroke-width="4"/><path d="M2680-314a6 6 0 0 1 6-6h308a6 6 0 0 1 6 6v148a6 6 0 0 1-6 6h-308a6 6 0 0 1-6-6z" stroke="#000" stroke-width="4" fill="#fff"/><g><use xlink:href="#u" transform="matrix(1,0,0,1,2692,-308) translate(25.54320987654323 75.88888888888889)"/><use xlink:href="#w" transform="matrix(1,0,0,1,2692,-308) translate(154.91358024691357 75.88888888888889)"/></g><path d="M3004-240h51.26" stroke="#000" stroke-width="4" fill="none"/><path d="M3004.05-238.03H3002v-3.94h2.05z" stroke="#000" stroke-width=".05"/><path d="M3071.53-240l-14.27 4.63v-9.26z" stroke="#000" stroke-width="4"/><path d="M3240-240c0 44.18-35.82 80-80 80s-80-35.82-80-80 35.82-80 80-80 80 35.82 80 80z" stroke="#000" stroke-width="4" fill="#fff"/><g><use xlink:href="#a" transform="matrix(1,0,0,1,3085,-315) translate(67.5925925925926 78.71527777777777)"/></g><path d="M3210-240c0 27.6-22.4 50-50 50s-50-22.4-50-50 22.4-50 50-50 50 22.4 50 50z" stroke="#000" stroke-width="4"/><defs><path d="M205 0l-28-72H64L36 0H1l101-248h38L239 0h-34zm-38-99l-47-123c-12 45-31 82-46 123h93" id="x"/><use transform="matrix(0.06172839506172839,0,0,0.06172839506172839,0,0)" xlink:href="#x" id="a"/><path d="M160-131c35 5 61 23 61 61C221 17 115-2 30 0v-248c76 3 177-17 177 60 0 33-19 50-47 57zm-97-11c50-1 110 9 110-42 0-47-63-36-110-37v79zm0 115c55-2 124 14 124-45 0-56-70-42-124-44v89" id="y"/><path d="M84 4C-5 8 30-112 23-190h32v120c0 31 7 50 39 49 72-2 45-101 50-169h31l1 190h-30c-1-10 1-25-2-33-11 22-28 36-60 37" id="z"/><path d="M135-143c-3-34-86-38-87 0 15 53 115 12 119 90S17 21 10-45l28-5c4 36 97 45 98 0-10-56-113-15-118-90-4-57 82-63 122-42 12 7 21 19 24 35" id="A"/><path d="M96-169c-40 0-48 33-48 73s9 75 48 75c24 0 41-14 43-38l32 2c-6 37-31 61-74 61-59 0-76-41-82-99-10-93 101-131 147-64 4 7 5 14 7 22l-32 3c-4-21-16-35-41-35" id="B"/><path d="M141-36C126-15 110 5 73 4 37 3 15-17 15-53c-1-64 63-63 125-63 3-35-9-54-41-54-24 1-41 7-42 31l-33-3c5-37 33-52 76-52 45 0 72 20 72 64v82c-1 20 7 32 28 27v20c-31 9-61-2-59-35zM48-53c0 20 12 33 32 33 41-3 63-29 60-74-43 2-92-5-92 41" id="C"/><path d="M114-163C36-179 61-72 57 0H25l-1-190h30c1 12-1 29 2 39 6-27 23-49 58-41v29" id="D"/><g id="b"><use transform="matrix(0.08641975308641973,0,0,0.08641975308641973,0,0)" xlink:href="#y"/><use transform="matrix(0.08641975308641973,0,0,0.08641975308641973,20.740740740740737,0)" xlink:href="#z"/><use transform="matrix(0.08641975308641973,0,0,0.08641975308641973,38.02469135802468,0)" xlink:href="#A"/><use transform="matrix(0.08641975308641973,0,0,0.08641975308641973,53.58024691358023,0)" xlink:href="#B"/><use transform="matrix(0.08641975308641973,0,0,0.08641975308641973,69.13580246913578,0)" xlink:href="#C"/><use transform="matrix(0.08641975308641973,0,0,0.08641975308641973,86.41975308641973,0)" xlink:href="#D"/></g><path d="M115-194c55 1 70 41 70 98S169 2 115 4C84 4 66-9 55-30l1 105H24l-1-265h31l2 30c10-21 28-34 59-34zm-8 174c40 0 45-34 45-75s-6-73-45-74c-42 0-51 32-51 76 0 43 10 73 51 73" id="E"/><path d="M100-194c62-1 85 37 85 99 1 63-27 99-86 99S16-35 15-95c0-66 28-99 85-99zM99-20c44 1 53-31 53-75 0-43-8-75-51-75s-53 32-53 75 10 74 51 75" id="F"/><path d="M85-194c31 0 48 13 60 33l-1-100h32l1 261h-30c-2-10 0-23-3-31C134-8 116 4 85 4 32 4 16-35 15-94c0-66 23-100 70-100zm9 24c-40 0-46 34-46 75 0 40 6 74 45 74 42 0 51-32 51-76 0-42-9-74-50-73" id="G"/><path d="M59-47c-2 24 18 29 38 22v24C64 9 27 4 27-40v-127H5v-23h24l9-43h21v43h35v23H59v120" id="H"/><g id="c"><use transform="matrix(0.08641975308641973,0,0,0.08641975308641973,0,0)" xlink:href="#E"/><use transform="matrix(0.08641975308641973,0,0,0.08641975308641973,17.283950617283946,0)" xlink:href="#D"/><use transform="matrix(0.08641975308641973,0,0,0.08641975308641973,27.567901234567895,0)" xlink:href="#F"/><use transform="matrix(0.08641975308641973,0,0,0.08641975308641973,44.85185185185184,0)" xlink:href="#G"/><use transform="matrix(0.08641975308641973,0,0,0.08641975308641973,62.13580246913578,0)" xlink:href="#z"/><use transform="matrix(0.08641975308641973,0,0,0.08641975308641973,79.41975308641973,0)" xlink:href="#H"/><use transform="matrix(0.08641975308641973,0,0,0.08641975308641973,88.0617283950617,0)" xlink:href="#F"/></g><path fill="#333" d="M175 0L67-191c6 58 2 128 3 191H24v-248h59L193-55c-6-58-2-129-3-193h46V0h-61" id="I"/><path fill="#333" d="M132-34C116-15 102 5 68 4 31 3 10-16 10-54c-1-60 55-63 116-61 1-26-3-47-28-47-18 1-26 9-28 27l-52-2c7-38 36-58 82-57s74 22 75 68l1 82c-1 14 12 18 25 15v27c-30 8-71 5-69-32zm-48 3c29 0 43-24 42-57-32 0-66-3-65 30 0 17 8 27 23 27zm82-228c-2 27-9 52-40 51-27-1-66-46-73 0H29c0-29 9-51 39-51 28 0 66 44 74 0h24" id="J"/><path fill="#333" d="M110-194c64 0 96 36 96 99 0 64-35 99-97 99-61 0-95-36-95-99 0-62 34-99 96-99zm-1 164c35 0 45-28 45-65 0-40-10-65-43-65-34 0-45 26-45 65 0 36 10 65 43 65" id="K"/><g id="d"><use transform="matrix(0.07407407407407407,0,0,0.07407407407407407,0,0)" xlink:href="#I"/><use transform="matrix(0.07407407407407407,0,0,0.07407407407407407,19.185185185185183,0)" xlink:href="#J"/><use transform="matrix(0.07407407407407407,0,0,0.07407407407407407,34,0)" xlink:href="#K"/></g><path fill="#333" d="M185-48c-13 30-37 53-82 52C43 2 14-33 14-96s30-98 90-98c62 0 83 45 84 108H66c0 31 8 55 39 56 18 0 30-7 34-22zm-45-69c5-46-57-63-70-21-2 6-4 13-4 21h74" id="L"/><path fill="#333" d="M135-194c87-1 58 113 63 194h-50c-7-57 23-157-34-157-59 0-34 97-39 157H25l-1-190h47c2 12-1 28 3 38 12-26 28-41 61-42" id="M"/><path fill="#333" d="M190-63c-7 42-38 67-86 67-59 0-84-38-90-98-12-110 154-137 174-36l-49 2c-2-19-15-32-35-32-30 0-35 28-38 64-6 74 65 87 74 30" id="N"/><path fill="#333" d="M115-3C79 11 28 4 28-45v-112H4v-33h27l15-45h31v45h36v33H77v99c-1 23 16 31 38 25v30" id="O"/><path fill="#333" d="M135-150c-39-12-60 13-60 57V0H25l-1-190h47c2 13-1 29 3 40 6-28 27-53 61-41v41" id="P"/><path fill="#333" d="M133-34C117-15 103 5 69 4 32 3 11-16 11-54c-1-60 55-63 116-61 1-26-3-47-28-47-18 1-26 9-28 27l-52-2c7-38 36-58 82-57s74 22 75 68l1 82c-1 14 12 18 25 15v27c-30 8-71 5-69-32zm-48 3c29 0 43-24 42-57-32 0-66-3-65 30 0 17 8 27 23 27" id="Q"/><path fill="#333" d="M88-194c31-1 46 15 58 34l-1-101h50l1 261h-48c-2-10 0-23-3-31C134-8 116 4 84 4 32 4 16-41 15-95c0-56 19-97 73-99zm17 164c33 0 40-30 41-66 1-37-9-64-41-64s-38 30-39 65c0 43 13 65 39 65" id="R"/><g id="e"><use transform="matrix(0.07407407407407407,0,0,0.07407407407407407,0,0)" xlink:href="#L"/><use transform="matrix(0.07407407407407407,0,0,0.07407407407407407,14.814814814814813,0)" xlink:href="#M"/><use transform="matrix(0.07407407407407407,0,0,0.07407407407407407,31.037037037037035,0)" xlink:href="#N"/><use transform="matrix(0.07407407407407407,0,0,0.07407407407407407,45.85185185185185,0)" xlink:href="#K"/><use transform="matrix(0.07407407407407407,0,0,0.07407407407407407,62.07407407407407,0)" xlink:href="#M"/><use transform="matrix(0.07407407407407407,0,0,0.07407407407407407,78.29629629629629,0)" xlink:href="#O"/><use transform="matrix(0.07407407407407407,0,0,0.07407407407407407,87.1111111111111,0)" xlink:href="#P"/><use transform="matrix(0.07407407407407407,0,0,0.07407407407407407,97.48148148148145,0)" xlink:href="#Q"/><use transform="matrix(0.07407407407407407,0,0,0.07407407407407407,112.29629629629628,0)" xlink:href="#R"/><use transform="matrix(0.07407407407407407,0,0,0.07407407407407407,128.5185185185185,0)" xlink:href="#K"/></g><path d="M137 0h-34L2-248h35l83 218 83-218h36" id="S"/><path d="M100-194c63 0 86 42 84 106H49c0 40 14 67 53 68 26 1 43-12 49-29l28 8c-11 28-37 45-77 45C44 4 14-33 15-96c1-61 26-98 85-98zm52 81c6-60-76-77-97-28-3 7-6 17-6 28h103" id="T"/><g id="f"><use transform="matrix(0.08641975308641973,0,0,0.08641975308641973,0,0)" xlink:href="#S"/><use transform="matrix(0.08641975308641973,0,0,0.08641975308641973,19.01234567901234,0)" xlink:href="#T"/><use transform="matrix(0.08641975308641973,0,0,0.08641975308641973,36.29629629629629,0)" xlink:href="#D"/></g><path d="M30 0v-248h33v221h125V0H30" id="U"/><path d="M177-190C167-65 218 103 67 71c-23-6-38-20-44-43l32-5c15 47 100 32 89-28v-30C133-14 115 1 83 1 29 1 15-40 15-95c0-56 16-97 71-98 29-1 48 16 59 35 1-10 0-23 2-32h30zM94-22c36 0 50-32 50-73 0-42-14-75-50-75-39 0-46 34-46 75s6 73 46 73" id="V"/><path d="M24-231v-30h32v30H24zM24 0v-190h32V0H24" id="W"/><path d="M117-194c89-4 53 116 60 194h-32v-121c0-31-8-49-39-48C34-167 62-67 57 0H25l-1-190h30c1 10-1 24 2 32 11-22 29-35 61-36" id="X"/><g id="g"><use transform="matrix(0.08641975308641973,0,0,0.08641975308641973,0,0)" xlink:href="#U"/><use transform="matrix(0.08641975308641973,0,0,0.08641975308641973,17.283950617283946,0)" xlink:href="#F"/><use transform="matrix(0.08641975308641973,0,0,0.08641975308641973,34.56790123456789,0)" xlink:href="#V"/><use transform="matrix(0.08641975308641973,0,0,0.08641975308641973,51.85185185185183,0)" xlink:href="#W"/><use transform="matrix(0.08641975308641973,0,0,0.08641975308641973,58.67901234567899,0)" xlink:href="#X"/></g><path fill="#333" d="M24 0v-248h52v208h133V0H24" id="Y"/><path fill="#333" d="M195-6C206 82 75 100 31 46c-4-6-6-13-8-21l49-6c3 16 16 24 34 25 40 0 42-37 40-79-11 22-30 35-61 35-53 0-70-43-70-97 0-56 18-96 73-97 30 0 46 14 59 34l2-30h47zm-90-29c32 0 41-27 41-63 0-35-9-62-40-62-32 0-39 29-40 63 0 36 9 62 39 62" id="Z"/><path fill="#333" d="M25-224v-37h50v37H25zM25 0v-190h50V0H25" id="aa"/><g id="h"><use transform="matrix(0.07407407407407407,0,0,0.07407407407407407,0,0)" xlink:href="#Y"/><use transform="matrix(0.07407407407407407,0,0,0.07407407407407407,16.22222222222222,0)" xlink:href="#K"/><use transform="matrix(0.07407407407407407,0,0,0.07407407407407407,32.44444444444444,0)" xlink:href="#Z"/><use transform="matrix(0.07407407407407407,0,0,0.07407407407407407,48.666666666666664,0)" xlink:href="#aa"/><use transform="matrix(0.07407407407407407,0,0,0.07407407407407407,56.07407407407407,0)" xlink:href="#M"/></g><path fill="#333" d="M128 0H69L1-190h53L99-40l48-150h52" id="ab"/><path fill="#333" d="M132-34C116-15 102 5 68 4 31 3 10-16 10-54c-1-60 55-63 116-61 1-26-3-47-28-47-18 1-26 9-28 27l-52-2c7-38 36-58 82-57s74 22 75 68l1 82c-1 14 12 18 25 15v27c-30 8-71 5-69-32zm-48 3c29 0 43-24 42-57-32 0-66-3-65 30 0 17 8 27 23 27zM66-208v-5l45-51h45v8l-60 48H66" id="ac"/><path fill="#333" d="M25 0v-261h50V0H25" id="ad"/><g id="i"><use transform="matrix(0.07407407407407407,0,0,0.07407407407407407,0,0)" xlink:href="#aa"/><use transform="matrix(0.07407407407407407,0,0,0.07407407407407407,7.4074074074074066,0)" xlink:href="#M"/><use transform="matrix(0.07407407407407407,0,0,0.07407407407407407,23.629629629629623,0)" xlink:href="#ab"/><use transform="matrix(0.07407407407407407,0,0,0.07407407407407407,38.44444444444444,0)" xlink:href="#ac"/><use transform="matrix(0.07407407407407407,0,0,0.07407407407407407,53.25925925925926,0)" xlink:href="#ad"/><use transform="matrix(0.07407407407407407,0,0,0.07407407407407407,60.66666666666666,0)" xlink:href="#aa"/><use transform="matrix(0.07407407407407407,0,0,0.07407407407407407,68.07407407407406,0)" xlink:href="#R"/><use transform="matrix(0.07407407407407407,0,0,0.07407407407407407,84.29629629629628,0)" xlink:href="#K"/></g><path d="M210-169c-67 3-38 105-44 169h-31v-121c0-29-5-50-35-48C34-165 62-65 56 0H25l-1-190h30c1 10-1 24 2 32 10-44 99-50 107 0 11-21 27-35 58-36 85-2 47 119 55 194h-31v-121c0-29-5-49-35-48" id="ae"/><g id="j"><use transform="matrix(0.08641975308641973,0,0,0.08641975308641973,0,0)" xlink:href="#U"/><use transform="matrix(0.08641975308641973,0,0,0.08641975308641973,17.283950617283946,0)" xlink:href="#W"/><use transform="matrix(0.08641975308641973,0,0,0.08641975308641973,24.111111111111107,0)" xlink:href="#A"/><use transform="matrix(0.08641975308641973,0,0,0.08641975308641973,39.66666666666666,0)" xlink:href="#H"/><use transform="matrix(0.08641975308641973,0,0,0.08641975308641973,48.30864197530863,0)" xlink:href="#C"/><use transform="matrix(0.08641975308641973,0,0,0.08641975308641973,65.59259259259258,0)" xlink:href="#V"/><use transform="matrix(0.08641975308641973,0,0,0.08641975308641973,82.87654320987653,0)" xlink:href="#T"/><use transform="matrix(0.08641975308641973,0,0,0.08641975308641973,100.16049382716047,0)" xlink:href="#ae"/></g><g id="k"><use transform="matrix(0.08641975308641973,0,0,0.08641975308641973,0,0)" xlink:href="#G"/><use transform="matrix(0.08641975308641973,0,0,0.08641975308641973,17.283950617283946,0)" xlink:href="#T"/></g><g id="l"><use transform="matrix(0.08641975308641973,0,0,0.08641975308641973,0,0)" xlink:href="#E"/><use transform="matrix(0.08641975308641973,0,0,0.08641975308641973,17.283950617283946,0)" xlink:href="#D"/><use transform="matrix(0.08641975308641973,0,0,0.08641975308641973,27.567901234567895,0)" xlink:href="#F"/><use transform="matrix(0.08641975308641973,0,0,0.08641975308641973,44.85185185185184,0)" xlink:href="#G"/><use transform="matrix(0.08641975308641973,0,0,0.08641975308641973,62.13580246913578,0)" xlink:href="#z"/><use transform="matrix(0.08641975308641973,0,0,0.08641975308641973,79.41975308641973,0)" xlink:href="#H"/><use transform="matrix(0.08641975308641973,0,0,0.08641975308641973,88.0617283950617,0)" xlink:href="#F"/><use transform="matrix(0.08641975308641973,0,0,0.08641975308641973,105.34567901234566,0)" xlink:href="#A"/></g><g id="m"><use transform="matrix(0.08641975308641973,0,0,0.08641975308641973,0,0)" xlink:href="#x"/><use transform="matrix(0.08641975308641973,0,0,0.08641975308641973,20.740740740740737,0)" xlink:href="#G"/><use transform="matrix(0.08641975308641973,0,0,0.08641975308641973,38.02469135802468,0)" xlink:href="#W"/><use transform="matrix(0.08641975308641973,0,0,0.08641975308641973,44.85185185185184,0)" xlink:href="#B"/><use transform="matrix(0.08641975308641973,0,0,0.08641975308641973,60.4074074074074,0)" xlink:href="#W"/><use transform="matrix(0.08641975308641973,0,0,0.08641975308641973,67.23456790123456,0)" xlink:href="#F"/><use transform="matrix(0.08641975308641973,0,0,0.08641975308641973,84.5185185185185,0)" xlink:href="#X"/><use transform="matrix(0.08641975308641973,0,0,0.08641975308641973,101.80246913580245,0)" xlink:href="#C"/><use transform="matrix(0.08641975308641973,0,0,0.08641975308641973,119.08641975308639,0)" xlink:href="#D"/></g><path fill="#333" d="M24-248c120-7 223 5 221 122C244-46 201 0 124 0H24v-248zM76-40c74 7 117-18 117-86 0-67-45-88-117-82v168" id="af"/><path fill="#333" d="M137-138c1-29-70-34-71-4 15 46 118 7 119 86 1 83-164 76-172 9l43-7c4 19 20 25 44 25 33 8 57-30 24-41C81-84 22-81 20-136c-2-80 154-74 161-7" id="ag"/><path fill="#333" d="M190-63c-7 42-38 67-86 67-59 0-84-38-90-98-12-110 154-137 174-36l-49 2c-2-19-15-32-35-32-30 0-35 28-38 64-6 74 65 87 74 30zm-84 77c20 1 33 9 33 27 0 32-36 36-71 33V53c15 1 39 4 39-11 0-13-16-12-31-12L87 0h25" id="ah"/><g id="n"><use transform="matrix(0.07407407407407407,0,0,0.07407407407407407,0,0)" xlink:href="#af"/><use transform="matrix(0.07407407407407407,0,0,0.07407407407407407,19.185185185185183,0)" xlink:href="#L"/><use transform="matrix(0.07407407407407407,0,0,0.07407407407407407,34,0)" xlink:href="#ag"/><use transform="matrix(0.07407407407407407,0,0,0.07407407407407407,48.81481481481481,0)" xlink:href="#N"/><use transform="matrix(0.07407407407407407,0,0,0.07407407407407407,63.62962962962962,0)" xlink:href="#P"/><use transform="matrix(0.07407407407407407,0,0,0.07407407407407407,73.99999999999999,0)" xlink:href="#aa"/><use transform="matrix(0.07407407407407407,0,0,0.07407407407407407,81.40740740740739,0)" xlink:href="#ah"/><use transform="matrix(0.07407407407407407,0,0,0.07407407407407407,96.2222222222222,0)" xlink:href="#J"/><use transform="matrix(0.07407407407407407,0,0,0.07407407407407407,111.03703703703701,0)" xlink:href="#K"/></g><path fill="#333" d="M25-224v-37h50v37H25zM75 22c2 45-34 59-81 51V38c22 5 31-5 31-27v-201h50V22" id="ai"/><g id="o"><use transform="matrix(0.07407407407407407,0,0,0.07407407407407407,0,0)" xlink:href="#ai"/><use transform="matrix(0.07407407407407407,0,0,0.07407407407407407,7.4074074074074066,0)" xlink:href="#ac"/></g><path fill="#333" d="M144 0l-44-69L55 0H2l70-98-66-92h53l41 62 40-62h54l-67 91 71 99h-54" id="aj"/><g id="p"><use transform="matrix(0.07407407407407407,0,0,0.07407407407407407,0,0)" xlink:href="#L"/><use transform="matrix(0.07407407407407407,0,0,0.07407407407407407,14.814814814814813,0)" xlink:href="#aj"/><use transform="matrix(0.07407407407407407,0,0,0.07407407407407407,29.629629629629626,0)" xlink:href="#aa"/><use transform="matrix(0.07407407407407407,0,0,0.07407407407407407,37.03703703703703,0)" xlink:href="#ag"/><use transform="matrix(0.07407407407407407,0,0,0.07407407407407407,51.85185185185185,0)" xlink:href="#O"/><use transform="matrix(0.07407407407407407,0,0,0.07407407407407407,60.666666666666664,0)" xlink:href="#L"/></g><path fill="#333" d="M67-125c0 53 21 87 73 88 37 1 54-22 65-47l45 17C233-25 199 4 140 4 58 4 20-42 15-125 8-235 124-281 211-232c18 10 29 29 36 50l-46 12c-8-25-30-41-62-41-52 0-71 34-72 86" id="ak"/><path fill="#333" d="M110-194c64 0 96 36 96 99 0 64-35 99-97 99-61 0-95-36-95-99 0-62 34-99 96-99zm-1 164c35 0 45-28 45-65 0-40-10-65-43-65-34 0-45 26-45 65 0 36 10 65 43 65zM81-208v-5l45-51h45v8l-60 48H81" id="al"/><g id="q"><use transform="matrix(0.07407407407407407,0,0,0.07407407407407407,0,0)" xlink:href="#ak"/><use transform="matrix(0.07407407407407407,0,0,0.07407407407407407,19.185185185185183,0)" xlink:href="#al"/><use transform="matrix(0.07407407407407407,0,0,0.07407407407407407,35.407407407407405,0)" xlink:href="#R"/><use transform="matrix(0.07407407407407407,0,0,0.07407407407407407,51.629629629629626,0)" xlink:href="#aa"/><use transform="matrix(0.07407407407407407,0,0,0.07407407407407407,59.03703703703703,0)" xlink:href="#Z"/><use transform="matrix(0.07407407407407407,0,0,0.07407407407407407,75.25925925925925,0)" xlink:href="#K"/></g><g id="r"><use transform="matrix(0.07407407407407407,0,0,0.07407407407407407,0,0)" xlink:href="#R"/><use transform="matrix(0.07407407407407407,0,0,0.07407407407407407,16.22222222222222,0)" xlink:href="#L"/></g><path fill="#333" d="M135-194c52 0 70 43 70 98 0 56-19 99-73 100-30 1-46-15-58-35L72 0H24l1-261h50v104c11-23 29-37 60-37zM114-30c31 0 40-27 40-66 0-37-7-63-39-63s-41 28-41 65c0 36 8 64 40 64" id="am"/><g id="s"><use transform="matrix(0.07407407407407407,0,0,0.07407407407407407,0,0)" xlink:href="#am"/><use transform="matrix(0.07407407407407407,0,0,0.07407407407407407,16.22222222222222,0)" xlink:href="#Q"/><use transform="matrix(0.07407407407407407,0,0,0.07407407407407407,31.037037037037035,0)" xlink:href="#P"/><use transform="matrix(0.07407407407407407,0,0,0.07407407407407407,41.407407407407405,0)" xlink:href="#P"/><use transform="matrix(0.07407407407407407,0,0,0.07407407407407407,51.77777777777777,0)" xlink:href="#Q"/><use transform="matrix(0.07407407407407407,0,0,0.07407407407407407,66.59259259259258,0)" xlink:href="#ag"/></g><g id="t"><use transform="matrix(0.07407407407407407,0,0,0.07407407407407407,0,0)" xlink:href="#ai"/><use transform="matrix(0.07407407407407407,0,0,0.07407407407407407,7.4074074074074066,0)" xlink:href="#ac"/></g><path d="M24 0v-261h32V0H24" id="an"/><path d="M9 0v-24l116-142H16v-24h144v24L44-24h123V0H9" id="ao"/><g id="u"><use transform="matrix(0.08641975308641973,0,0,0.08641975308641973,0,0)" xlink:href="#x"/><use transform="matrix(0.08641975308641973,0,0,0.08641975308641973,20.740740740740737,0)" xlink:href="#H"/><use transform="matrix(0.08641975308641973,0,0,0.08641975308641973,29.382716049382708,0)" xlink:href="#z"/><use transform="matrix(0.08641975308641973,0,0,0.08641975308641973,46.66666666666666,0)" xlink:href="#C"/><use transform="matrix(0.08641975308641973,0,0,0.08641975308641973,63.950617283950606,0)" xlink:href="#an"/><use transform="matrix(0.08641975308641973,0,0,0.08641975308641973,70.77777777777777,0)" xlink:href="#W"/><use transform="matrix(0.08641975308641973,0,0,0.08641975308641973,77.60493827160494,0)" xlink:href="#ao"/><use transform="matrix(0.08641975308641973,0,0,0.08641975308641973,93.1604938271605,0)" xlink:href="#C"/><use transform="matrix(0.08641975308641973,0,0,0.08641975308641973,110.44444444444444,0)" xlink:href="#D"/></g><path d="M30 0v-248h187v28H63v79h144v27H63v87h162V0H30" id="ap"/><path d="M141 0L90-78 38 0H4l68-98-65-92h35l48 74 47-74h35l-64 92 68 98h-35" id="aq"/><g id="v"><use transform="matrix(0.08641975308641973,0,0,0.08641975308641973,0,0)" xlink:href="#ap"/><use transform="matrix(0.08641975308641973,0,0,0.08641975308641973,20.740740740740737,0)" xlink:href="#aq"/><use transform="matrix(0.08641975308641973,0,0,0.08641975308641973,36.29629629629629,0)" xlink:href="#B"/><use transform="matrix(0.08641975308641973,0,0,0.08641975308641973,51.85185185185184,0)" xlink:href="#an"/><use transform="matrix(0.08641975308641973,0,0,0.08641975308641973,58.679012345679,0)" xlink:href="#z"/><use transform="matrix(0.08641975308641973,0,0,0.08641975308641973,75.96296296296295,0)" xlink:href="#W"/><use transform="matrix(0.08641975308641973,0,0,0.08641975308641973,82.79012345679011,0)" xlink:href="#D"/></g><g id="w"><use transform="matrix(0.08641975308641973,0,0,0.08641975308641973,0,0)" xlink:href="#an"/><use transform="matrix(0.08641975308641973,0,0,0.08641975308641973,6.827160493827159,0)" xlink:href="#W"/><use transform="matrix(0.08641975308641973,0,0,0.08641975308641973,13.654320987654318,0)" xlink:href="#A"/><use transform="matrix(0.08641975308641973,0,0,0.08641975308641973,29.20987654320987,0)" xlink:href="#H"/><use transform="matrix(0.08641975308641973,0,0,0.08641975308641973,37.85185185185184,0)" xlink:href="#C"/><use transform="matrix(0.08641975308641973,0,0,0.08641975308641973,55.13580246913578,0)" xlink:href="#V"/><use transform="matrix(0.08641975308641973,0,0,0.08641975308641973,72.41975308641973,0)" xlink:href="#T"/><use transform="matrix(0.08641975308641973,0,0,0.08641975308641973,89.70370370370368,0)" xlink:href="#ae"/></g></defs></g></svg>